<svg xmlns="http://www.w3.org/2000/svg"><symbol id="mecha-stilts" viewBox="0 0 256 256"><path d="M128.4 157.4h13.2v13.04h-13.2zm-24.9 0h20.7v13.04h-20.7zm42.3 0h20.7v13.04h-20.7zM135 71.1c-24.2 0-44.5 14.7-45.5 41.4h91.1c-1.1-26.7-21.4-41.4-45.6-41.4zm-48.9 86.3h13.2v13.04H86.1zm-12.4-4.2h122.6v-36.6H73.7zm60.3-14h50.5a2.1 2.1 0 0 1 0 4.1H134a2.1 2.1 0 1 1 0-4.1z"/><path d="M135 2L25.9 65v126L135 254l109.1-63V65zm65.4 153.4a2 2 0 0 1-2.1 2.1H188v13h10.3a2.1 2.1 0 1 1 0 4.1H71.7a2.1 2.1 0 1 1 0-4.1H82v-13H71.7a2 2 0 0 1-2.1-2.1v-40.9a2 2 0 0 1 2.1-2.1h13.6c1-29.4 23-45.5 49.7-45.5s48.6 16.1 49.7 45.5h13.7a2 2 0 0 1 2.1 2.1z"/><path d="M170.6 157.4h13.2v13.04h-13.2z"/></symbol><symbol id="super-domes" viewBox="0 0 256 256"><path d="M125.9 127.8V86l-29.8 41.8h29.8zm-55.7 19.7h55.7v22.98H70.2zm59.9-65.9v46.2h57.1a61.5 61.5 0 0 0-57.1-46.2zm0 65.9h9.3v22.98h-9.3zm-6.2-65.7c-26.5 1.7-48.6 20.9-55.1 46h22.1zm19.6 65.7h42.2v22.98h-42.2z"/><path d="M128 2L18.9 65v126L128 254l109.1-63V65zm89.2 145.5h-27.3v25a2 2 0 0 1-2.1 2.1H68.2a2 2 0 0 1-2.1-2.1v-25H38.8a2.1 2.1 0 0 1 0-4.1h15.5v-13.5a2 2 0 0 1 2.1-2.1h8.1a65.6 65.6 0 0 1 63.3-50.3c.2-.2.4-.2.8 0 30.6.2 56.1 21.7 62.9 50.3h8.1a2 2 0 0 1 2.1 2.1v13.5h15.5a2.1 2.1 0 1 1 0 4.1z"/><path d="M58.4 131.9h139.1v11.38H58.4z"/></symbol><symbol id="space-bubbles" viewBox="0 0 256 256"><path d="M97.8 149.5H84.1l-18.2 21.6 2.9 4.1 35-18.4-6-7.3zm73.7-19a50 50 0 0 0 2.5-15.7 44.8 44.8 0 0 0-89.6 0c0 5.4.4 11 2.5 15.7zm-99 4.1h113.2v10.76H72.5zm30.7 14.9l17.3 20.9h14.9l17.4-20.9h-49.6zM87 170.4h28.2l-8.5-10.3L87 170.4z"/><path d="M128 2L18.9 65v126L128 254l109.1-63V65zm66.2 170.3l-4.8 6.8a2.2 2.2 0 0 1-2.7.6l-9.9-5.2H78.9l-9.9 5.2a2.3 2.3 0 0 1-2.7-.6l-4.8-6.8a2.2 2.2 0 0 1 .2-2.5l17.2-20.3h-8.4a2 2 0 0 1-2.1-2.1v-14.9a2 2 0 0 1 2.1-2.1h12a57.8 57.8 0 0 1-2.3-15.7 49 49 0 0 1 97.9 0 50.8 50.8 0 0 1-2.3 15.7h12a2 2 0 0 1 2.1 2.1v14.9a2 2 0 0 1-2.1 2.1h-10.5l17 20.3a2.2 2.2 0 0 1-.1 2.5z"/><path d="M140.8 170.4H169l-19.7-10.3-8.5 10.3zm17.4-20.9l-6.2 7.3 35.2 18.4 2.9-3.9-18.2-21.8h-13.7z"/></symbol></svg>